<?xml version="1.0" encoding="UTF-8" standalone="no"?>
<!-- Created with Inkscape (http://www.inkscape.org/) -->

<svg
   width="149.39009mm"
   height="77.077309mm"
   viewBox="0 0 149.39009 77.077309"
   version="1.1"
   id="svg1"
   xml:space="preserve"
   xmlns="http://www.w3.org/2000/svg"
   xmlns:svg="http://www.w3.org/2000/svg"><defs
     id="defs1"><clipPath
       id="1ee0bad8c9"><path
         d="M 0,0.00390625 H 42.484375 V 40.21875 H 0 Z m 0,0"
         clip-rule="nonzero"
         id="path3" /></clipPath><clipPath
       id="9775bdebb2"><rect
         x="0"
         width="43"
         y="0"
         height="41"
         id="rect3" /></clipPath><clipPath
       id="5a3df4fa49"><path
         d="M 0.269531,0.40625 H 42.753906 V 40.625 H 0.269531 Z m 0,0"
         clip-rule="nonzero"
         id="path6" /></clipPath><clipPath
       id="2522c3899c"><rect
         x="0"
         width="43"
         y="0"
         height="41"
         id="rect6" /></clipPath><clipPath
       id="e6001bf55a"><path
         d="m 0.867188,0.722656 h 42.480468 v 40.21875 H 0.867188 Z m 0,0"
         clip-rule="nonzero"
         id="path9" /></clipPath><clipPath
       id="f4b681dc04"><rect
         x="0"
         width="44"
         y="0"
         height="41"
         id="rect9" /></clipPath><clipPath
       id="c3ec1561ed"><path
         d="M 0.363281,0.117188 H 42.84375 V 40.332031 H 0.363281 Z m 0,0"
         clip-rule="nonzero"
         id="path12" /></clipPath><clipPath
       id="24cdb0dc57"><rect
         x="0"
         width="43"
         y="0"
         height="41"
         id="rect12" /></clipPath><clipPath
       id="06670b1523"><path
         d="m 0.757812,0.992188 h 42.484376 v 40.21875 H 0.757812 Z m 0,0"
         clip-rule="nonzero"
         id="path15" /></clipPath><clipPath
       id="522d6e263b"><rect
         x="0"
         width="44"
         y="0"
         height="42"
         id="rect15" /></clipPath><clipPath
       clipPathUnits="userSpaceOnUse"
       id="clipPath1"><path
         d="m 443.88019,303.83663 h 26.63716 v 21.28287 h -26.63716 z m 0,0"
         clip-rule="nonzero"
         id="path18"
         style="stroke-width:0.576175" /></clipPath><clipPath
       clipPathUnits="userSpaceOnUse"
       id="clipPath19"><path
         d="m 433.59819,107.52059 h 26.63716 v 21.28287 h -26.63716 z m 0,0"
         clip-rule="nonzero"
         id="path20"
         style="stroke-width:0.576175" /></clipPath><clipPath
       clipPathUnits="userSpaceOnUse"
       id="clipPath20"><path
         d="m 285.90433,104.13576 h 26.63719 v 21.28287 h -26.63719 z m 0,0"
         clip-rule="nonzero"
         id="path23"
         style="stroke-width:0.576175" /></clipPath><clipPath
       clipPathUnits="userSpaceOnUse"
       id="clipPath29"><path
         d="m 186.43815,290.29317 h 26.63717 v 21.28287 h -26.63717 z m 0,0"
         clip-rule="nonzero"
         id="path30"
         style="stroke-width:0.576175" /></clipPath><clipPath
       clipPathUnits="userSpaceOnUse"
       id="clipPath33"><path
         d="m 50.802447,122.81126 h 26.637171 v 21.28287 H 50.802447 Z m 0,0"
         clip-rule="nonzero"
         id="path34"
         style="stroke-width:0.576175" /></clipPath><clipPath
       clipPathUnits="userSpaceOnUse"
       id="clipPath38"><path
         d="M -2.1950618e-6,78.434208 H 508 V 364.18463 H -2.1950618e-6 Z m 0,0"
         clip-rule="nonzero"
         id="path39"
         style="stroke-width:0.576175" /></clipPath><clipPath
       clipPathUnits="userSpaceOnUse"
       id="clipPath48"><path
         d="m 433.59573,107.52059 h 26.64206 v 21.28701 h -26.64206 z m 0,0"
         clip-rule="nonzero"
         id="path49"
         style="stroke-width:0.576175" /></clipPath><clipPath
       clipPathUnits="userSpaceOnUse"
       id="clipPath49"><path
         d="m 186.4357,290.29317 h 26.64453 v 21.28908 H 186.4357 Z m 0,0"
         clip-rule="nonzero"
         id="path50"
         style="stroke-width:0.576175" /></clipPath><clipPath
       clipPathUnits="userSpaceOnUse"
       id="clipPath50"><path
         d="m 443.87773,303.83663 h 26.64452 v 21.28908 h -26.64452 z m 0,0"
         clip-rule="nonzero"
         id="path51"
         style="stroke-width:0.576175" /></clipPath><clipPath
       clipPathUnits="userSpaceOnUse"
       id="clipPath51"><path
         d="m 50.799997,122.81126 h 26.644526 v 21.28701 H 50.799997 Z m 0,0"
         clip-rule="nonzero"
         id="path52"
         style="stroke-width:0.576175" /></clipPath><clipPath
       clipPathUnits="userSpaceOnUse"
       id="clipPath52"><path
         d="m 285.9019,104.13576 h 26.64206 v 21.28908 H 285.9019 Z m 0,0"
         clip-rule="nonzero"
         id="path53"
         style="stroke-width:0.576175" /></clipPath><clipPath
       id="e7d05c8e55"><path
         d="m 92,0.0742188 h 29 V 29 H 92 Z m 0,0"
         clip-rule="nonzero"
         id="path1" /></clipPath><clipPath
       id="3e23fb32ff"><path
         d="M 0.390625,87 H 4 v 9 H 0.390625 Z m 0,0"
         clip-rule="nonzero"
         id="path2" /></clipPath><clipPath
       id="1ee0bad8c9-5"><path
         d="M 0,0.00390625 H 42.484375 V 40.21875 H 0 Z m 0,0"
         clip-rule="nonzero"
         id="path3-5" /></clipPath><clipPath
       id="9775bdebb2-1"><rect
         x="0"
         width="43"
         y="0"
         height="41"
         id="rect3-7" /></clipPath><clipPath
       id="5a3df4fa49-1"><path
         d="M 0.269531,0.40625 H 42.753906 V 40.625 H 0.269531 Z m 0,0"
         clip-rule="nonzero"
         id="path6-1" /></clipPath><clipPath
       id="2522c3899c-5"><rect
         x="0"
         width="43"
         y="0"
         height="41"
         id="rect6-2" /></clipPath><clipPath
       id="e6001bf55a-7"><path
         d="m 0.867188,0.722656 h 42.480468 v 40.21875 H 0.867188 Z m 0,0"
         clip-rule="nonzero"
         id="path9-6" /></clipPath><clipPath
       id="f4b681dc04-1"><rect
         x="0"
         width="44"
         y="0"
         height="41"
         id="rect9-4" /></clipPath><clipPath
       id="c3ec1561ed-2"><path
         d="M 0.363281,0.117188 H 42.84375 V 40.332031 H 0.363281 Z m 0,0"
         clip-rule="nonzero"
         id="path12-3" /></clipPath><clipPath
       id="24cdb0dc57-2"><rect
         x="0"
         width="43"
         y="0"
         height="41"
         id="rect12-2" /></clipPath><clipPath
       id="06670b1523-1"><path
         d="m 0.757812,0.992188 h 42.484376 v 40.21875 H 0.757812 Z m 0,0"
         clip-rule="nonzero"
         id="path15-6" /></clipPath><clipPath
       id="522d6e263b-8"><rect
         x="0"
         width="44"
         y="0"
         height="42"
         id="rect15-5" /></clipPath><clipPath
       clipPathUnits="userSpaceOnUse"
       id="clipPath1-7"><path
         d="m 443.88019,303.83663 h 26.63716 v 21.28287 h -26.63716 z m 0,0"
         clip-rule="nonzero"
         id="path18-6"
         style="stroke-width:0.576175" /></clipPath><clipPath
       clipPathUnits="userSpaceOnUse"
       id="clipPath19-1"><path
         d="m 433.59819,107.52059 h 26.63716 v 21.28287 h -26.63716 z m 0,0"
         clip-rule="nonzero"
         id="path20-8"
         style="stroke-width:0.576175" /></clipPath><clipPath
       clipPathUnits="userSpaceOnUse"
       id="clipPath20-9"><path
         d="m 285.90433,104.13576 h 26.63719 v 21.28287 h -26.63719 z m 0,0"
         clip-rule="nonzero"
         id="path23-2"
         style="stroke-width:0.576175" /></clipPath><clipPath
       clipPathUnits="userSpaceOnUse"
       id="clipPath29-7"><path
         d="m 186.43815,290.29317 h 26.63717 v 21.28287 h -26.63717 z m 0,0"
         clip-rule="nonzero"
         id="path30-9"
         style="stroke-width:0.576175" /></clipPath><clipPath
       clipPathUnits="userSpaceOnUse"
       id="clipPath33-5"><path
         d="m 50.802447,122.81126 h 26.637171 v 21.28287 H 50.802447 Z m 0,0"
         clip-rule="nonzero"
         id="path34-4"
         style="stroke-width:0.576175" /></clipPath><clipPath
       clipPathUnits="userSpaceOnUse"
       id="clipPath38-3"><path
         d="M -2.1950618e-6,78.434208 H 508 V 364.18463 H -2.1950618e-6 Z m 0,0"
         clip-rule="nonzero"
         id="path39-1"
         style="stroke-width:0.576175" /></clipPath><clipPath
       clipPathUnits="userSpaceOnUse"
       id="clipPath48-2"><path
         d="m 433.59573,107.52059 h 26.64206 v 21.28701 h -26.64206 z m 0,0"
         clip-rule="nonzero"
         id="path49-3"
         style="stroke-width:0.576175" /></clipPath><clipPath
       clipPathUnits="userSpaceOnUse"
       id="clipPath49-3"><path
         d="m 186.4357,290.29317 h 26.64453 v 21.28908 H 186.4357 Z m 0,0"
         clip-rule="nonzero"
         id="path50-4"
         style="stroke-width:0.576175" /></clipPath><clipPath
       clipPathUnits="userSpaceOnUse"
       id="clipPath50-1"><path
         d="m 443.87773,303.83663 h 26.64452 v 21.28908 h -26.64452 z m 0,0"
         clip-rule="nonzero"
         id="path51-1"
         style="stroke-width:0.576175" /></clipPath><clipPath
       clipPathUnits="userSpaceOnUse"
       id="clipPath51-3"><path
         d="m 50.799997,122.81126 h 26.644526 v 21.28701 H 50.799997 Z m 0,0"
         clip-rule="nonzero"
         id="path52-8"
         style="stroke-width:0.576175" /></clipPath><clipPath
       clipPathUnits="userSpaceOnUse"
       id="clipPath52-7"><path
         d="m 285.9019,104.13576 h 26.64206 v 21.28908 H 285.9019 Z m 0,0"
         clip-rule="nonzero"
         id="path53-4"
         style="stroke-width:0.576175" /></clipPath><clipPath
       id="e7d05c8e55-2"><path
         d="m 92,0.0742188 h 29 V 29 H 92 Z m 0,0"
         clip-rule="nonzero"
         id="path1-7" /></clipPath><clipPath
       id="3e23fb32ff-7"><path
         d="M 0.390625,87 H 4 v 9 H 0.390625 Z m 0,0"
         clip-rule="nonzero"
         id="path2-9" /></clipPath></defs><g
     id="layer1"
     transform="translate(-30.305211,-112.06854)"><path
       id="path69"
       style="fill:#c10037"
       d="M 104.99574 112.06854 A 1.851316 1.851316 0 0 0 103.68678 112.61063 L 94.519379 121.77751 A 1.5930956 1.5930956 0 0 0 94.519379 124.0306 L 103.6041 133.1148 A 1.9682464 1.9682464 0 0 0 106.38739 133.1148 L 115.48761 124.0151 A 1.5706831 1.5706831 0 0 0 115.48761 121.79353 L 106.30471 112.61063 A 1.851316 1.851316 0 0 0 104.99574 112.06854 z M 89.546039 126.8418 A 1.851316 1.851316 0 0 0 88.237075 127.38388 L 79.070193 136.55077 A 1.5930956 1.5930956 0 0 0 79.070193 138.80386 L 88.154393 147.88806 A 1.9682464 1.9682464 0 0 0 90.937686 147.88806 L 100.03791 138.78784 A 1.5706831 1.5706831 0 0 0 100.03791 136.56679 L 90.855003 127.38388 A 1.851316 1.851316 0 0 0 89.546039 126.8418 z M 120.44493 126.8418 A 1.851316 1.851316 0 0 0 119.13596 127.38388 L 109.96908 136.55077 A 1.5930956 1.5930956 0 0 0 109.96908 138.80386 L 119.05328 147.88806 A 1.9682464 1.9682464 0 0 0 121.83709 147.88806 L 130.93679 138.78784 A 1.5706831 1.5706831 0 0 0 130.93679 136.56679 L 121.75441 127.38388 A 1.851316 1.851316 0 0 0 120.44493 126.8418 z M 175.04935 156.62499 C 174.99375 156.62499 174.96243 156.65259 174.95323 156.70509 L 170.48942 182.02964 C 170.48242 182.06164 170.48414 182.08784 170.49614 182.10664 C 170.50186 182.1148 170.50903 182.12179 170.51732 182.12731 C 170.52862 182.13431 170.5425 182.1399 170.5597 182.1423 C 170.56103 182.14233 170.5625 182.14233 170.56383 182.1423 L 173.99411 182.14437 L 175.12996 182.14437 C 175.14776 182.14437 175.16315 182.14161 175.17595 182.13661 C 175.17905 182.13513 175.18236 182.13329 175.18526 182.13145 C 175.20492 182.11842 175.21838 182.09784 175.22246 182.0746 L 179.69454 156.72938 C 179.69654 156.71118 179.69514 156.69544 179.69144 156.68184 C 179.68377 156.65997 179.66729 156.64235 179.64597 156.63326 C 179.63697 156.63026 179.62678 156.62754 179.61548 156.62654 C 179.61481 156.62654 179.61408 156.62654 179.61341 156.62654 L 178.68427 156.62603 L 175.04935 156.62499 z M 171.39841 156.65703 L 169.16133 156.65755 L 166.90152 156.65858 C 166.83612 156.66687 166.78307 156.71556 166.76923 156.78002 L 165.78273 162.37606 L 163.15343 177.29557 C 163.14276 177.35606 163.09032 177.40023 163.02889 177.40047 L 157.90156 177.4046 C 157.91056 177.3896 157.91975 177.37475 157.92895 177.35965 L 157.92895 177.35913 L 157.92843 177.35861 L 157.92791 177.35809 L 157.92791 177.35758 L 157.92791 177.35706 L 157.9274 177.35654 C 157.92735 177.35636 157.92745 177.35548 157.9274 177.35448 L 157.92688 177.35396 L 157.92688 177.35344 C 157.91158 177.32564 157.91498 177.29753 157.92998 177.26973 L 158.25451 176.7633 C 158.25751 176.7573 158.26349 176.74831 158.26639 176.73901 C 158.34979 176.5229 158.55043 176.02562 158.86842 175.24763 C 159.01044 174.90186 159.16787 174.24718 159.34385 173.29013 C 159.52883 172.26988 159.56157 171.28021 159.441 170.31873 C 159.14729 168.47357 158.25175 166.83484 156.67528 165.79291 C 155.89801 165.33195 155.09778 165.01784 154.13279 164.83431 C 153.55953 164.72522 152.93897 164.65305 152.27141 164.61624 L 143.35671 164.5935 C 143.35604 164.59349 143.35531 164.59349 143.35464 164.5935 C 143.32954 164.5965 143.31245 164.61052 143.30245 164.63432 C 143.30167 164.63629 143.30094 164.63849 143.30038 164.64052 L 142.12888 171.28043 C 142.04818 171.94206 141.94002 172.53911 141.80487 173.07619 C 141.60938 173.88197 141.33099 174.66272 140.91241 175.28794 C 140.89321 175.31644 140.87414 175.34459 140.85454 175.37269 C 140.28564 176.23688 139.55638 176.7808 138.67947 177.08576 C 138.50409 177.15306 138.32247 177.21104 138.13429 177.26043 C 137.72985 177.36539 137.16166 177.41488 136.4269 177.40254 L 132.67881 177.40254 C 132.68081 177.39854 132.68353 177.39453 132.68553 177.39013 C 132.67543 177.38413 132.66639 177.37443 132.65969 177.36223 C 132.64439 177.33443 132.64422 177.30683 132.66382 177.27903 C 132.9116 176.86606 133.16836 176.35661 133.43432 175.75871 C 133.58153 175.36848 133.725 174.97345 133.83998 174.54431 C 134.46324 171.26352 135.09963 167.91199 135.72307 164.63019 C 135.72907 164.58569 135.71191 164.56089 135.66881 164.55939 L 135.66467 164.55939 L 131.04583 164.55939 C 131.00323 164.55939 130.97675 164.57789 130.96625 164.61469 C 130.72063 165.88051 130.51388 167.16234 130.29601 168.44081 C 130.24131 168.81709 130.20551 169.24741 130.1477 169.53635 C 129.89884 170.79984 129.7321 171.66569 129.64798 172.13671 C 129.63898 172.19091 129.62906 172.24532 129.61956 172.29949 C 129.48063 173.15774 129.3076 173.80307 129.10693 174.23529 C 129.09243 174.26639 129.07812 174.29677 129.06352 174.32727 C 128.46662 175.78407 127.57446 176.57614 126.52621 176.98861 C 126.34149 177.07051 126.14829 177.14393 125.94588 177.20823 C 125.47971 177.35642 124.80674 177.42103 123.92689 177.39634 L 122.83858 177.39117 C 122.40653 177.39217 121.85248 177.39492 121.17615 177.39892 C 121.14845 177.39892 121.12796 177.39392 121.11466 177.38342 L 120.93792 177.38238 C 121.23631 176.9344 121.50075 176.46897 121.7296 175.99177 C 121.7346 175.97937 121.73957 175.96655 121.74407 175.95405 C 122.11454 175.00009 122.34599 174.29013 122.43861 173.82704 C 122.47261 173.66342 122.53411 173.02745 122.62671 171.91295 C 122.65761 171.55174 122.65432 171.15401 122.61792 170.71871 C 122.56542 170.10743 122.51962 169.7092 122.47943 169.52705 C 122.42323 169.28351 122.35549 169.04831 122.27634 168.82115 C 121.45028 166.72111 119.56298 165.1049 116.4276 164.67877 C 115.88387 164.60857 115.32525 164.56167 114.73933 164.55888 L 104.71772 164.56094 C 104.49812 164.56134 104.27592 164.56105 104.0511 164.56146 C 104.0441 164.56146 104.03724 164.56167 104.03094 164.56094 L 103.95446 164.56094 L 105.32647 156.78209 C 105.34187 156.69869 105.30498 156.6555 105.22157 156.65858 L 100.70453 156.65858 C 100.69453 156.65858 100.68663 156.66075 100.67973 156.66375 C 100.6732 156.6675 100.66754 156.6726 100.66319 156.67874 C 100.66019 156.68374 100.65692 156.69089 100.65492 156.69889 C 100.65292 156.70889 100.65124 156.71781 100.64924 156.72731 L 97.036022 177.15501 C 97.032022 177.18381 97.028023 177.21231 97.024653 177.24131 C 97.017653 177.29511 96.998742 177.3352 96.968842 177.36223 C 96.939873 177.39028 96.901162 177.40604 96.860838 177.40615 L 94.523513 177.40512 L 92.397028 177.40512 C 92.391228 177.40512 92.385485 177.40454 92.379975 177.40409 L 92.259052 177.40409 L 92.272488 177.32709 C 92.260508 177.30269 92.25779 177.27501 92.26422 177.24441 C 92.35328 176.78606 92.433105 176.37401 92.503998 176.00831 L 93.003193 173.1692 C 93.037733 172.90048 93.076804 172.6257 93.128767 172.38837 C 93.149067 172.29707 93.168864 172.20652 93.188194 172.11707 L 94.494058 164.68807 C 94.49479 164.68207 94.495325 164.67588 94.496125 164.66998 C 94.501625 164.62288 94.482234 164.59602 94.440314 164.59092 C 94.436714 164.59092 94.433112 164.59093 94.429462 164.59092 C 93.525835 164.58892 88.029732 164.56428 86.598933 164.59298 C 86.565243 164.59298 86.531702 164.59275 86.498163 164.59298 C 86.04735 164.59498 85.6483 164.6323 85.237259 164.6612 C 79.258016 165.23389 75.898147 169.54436 75.351557 173.74901 C 75.295197 174.27458 75.263987 174.79497 75.265257 175.30964 C 75.377714 178.1856 76.881666 180.77335 79.84999 181.75886 C 80.989929 182.03378 81.915619 182.17529 82.624498 182.18106 C 82.632098 182.18108 82.639576 182.18106 82.647236 182.18106 C 83.065018 182.18606 83.488103 182.18722 83.912792 182.18622 C 84.784696 182.18822 85.671545 182.18816 86.574128 182.18416 C 86.579128 182.18416 86.584374 182.18484 86.589114 182.18519 C 86.632694 182.18563 86.678454 182.18465 86.721922 182.18519 L 86.699702 182.3118 C 86.699612 182.3188 86.698899 182.32567 86.697635 182.33247 L 85.512177 189.05351 C 85.502877 189.11521 85.527952 189.14601 85.589692 189.14601 L 90.124815 189.14601 C 90.139725 189.14601 90.152503 189.14377 90.163573 189.13877 C 90.182253 189.12877 90.1976 189.11195 90.20388 189.09175 C 90.204777 189.08875 90.205347 189.08596 90.205947 189.08296 L 91.419827 182.17796 L 94.110102 182.17382 C 94.741756 182.16382 95.354993 182.15315 95.916193 182.15315 C 100.56538 182.15515 104.24772 182.15522 106.96255 182.15522 L 112.22321 182.14695 C 112.23021 182.14695 112.23635 182.14696 112.24285 182.14695 C 112.72158 182.14395 113.5549 182.03938 114.75174 181.83534 C 114.76894 181.83234 114.78631 181.82956 114.80341 181.82656 C 116.77354 181.32148 118.44267 180.2559 119.73696 178.8903 C 119.71426 179.02322 119.69167 179.15636 119.66927 179.28976 C 119.67127 179.29976 119.67226 179.31052 119.66978 179.32232 L 119.56178 179.93261 C 119.44203 180.6488 119.32112 181.36308 119.18661 182.05393 C 119.17861 182.11683 119.20784 182.15033 119.27084 182.15263 C 120.6462 182.18363 122.0397 182.12107 123.41426 182.15677 C 123.41926 182.15678 123.42498 182.15676 123.43028 182.15677 C 124.07704 182.15677 124.58286 182.11945 125.04051 182.06685 C 125.24856 182.04455 125.45278 182.01505 125.65598 181.98365 C 126.02906 181.92415 126.29667 181.86511 126.56238 181.8064 C 127.10128 181.68136 127.62706 181.53311 128.12301 181.33615 C 129.01819 180.94201 129.89375 180.37945 130.74714 179.64994 C 130.94781 179.47705 131.03377 179.3011 131.23135 179.17452 C 131.24685 179.16552 131.25936 179.16852 131.27166 179.17452 C 131.28066 179.18152 131.28678 179.19018 131.28768 179.20088 L 131.28768 179.20139 C 131.2879 179.20439 131.28788 179.20843 131.28716 179.21173 L 131.27889 179.25669 L 131.27838 179.2572 L 130.78642 182.04256 C 130.77492 182.11156 130.80063 182.14835 130.86393 182.15315 L 137.29403 182.08907 C 138.26952 181.97176 138.95195 181.85448 139.34093 181.74026 C 140.92778 181.27408 142.32318 180.44372 143.52104 179.25204 C 143.54254 179.23054 143.56615 179.22273 143.59235 179.23343 C 143.60485 179.21983 143.61758 179.20631 143.63008 179.19261 L 143.62026 179.251 C 143.63646 179.2662 143.64324 179.28713 143.63834 179.31353 L 143.15982 182.03946 C 143.14862 182.10916 143.17287 182.1461 143.23217 182.15263 L 149.76045 182.09424 C 150.38686 182.03464 151.11638 181.92532 151.94895 181.76506 C 152.27312 181.70026 152.54522 181.62305 152.7675 181.52735 C 153.40965 181.25567 153.87278 181.13175 154.33278 180.8292 C 154.6415 180.62853 155.20924 180.33219 155.57663 179.99876 C 155.82361 179.77648 156.07988 179.62557 156.30217 179.36624 C 156.32067 179.34774 156.33948 179.34144 156.36108 179.35384 L 156.3616 179.35384 L 156.36212 179.35436 L 156.36212 179.35487 L 156.36263 179.35487 C 156.38093 179.33657 156.39921 179.31798 156.41741 179.29958 L 155.95336 181.88443 L 155.91925 182.07977 C 155.91625 182.09827 155.91635 182.11313 155.92235 182.12473 C 155.92425 182.12862 155.92632 182.13223 155.92907 182.13558 L 155.92958 182.13558 C 155.93085 182.13698 155.93232 182.13845 155.93372 182.13972 C 155.94482 182.14872 155.96188 182.15367 155.98488 182.15367 L 166.86742 182.15367 C 166.95972 182.15367 167.01201 182.11107 167.03072 182.01931 L 167.19143 181.10877 L 171.48006 156.77641 C 171.49126 156.70321 171.46381 156.66351 171.39841 156.65703 z M 43.755036 158.19596 C 43.725326 158.19596 43.695472 158.21157 43.664602 158.24247 L 41.259581 160.64749 C 41.197831 160.70619 41.197831 160.76505 41.259581 160.8268 L 43.664602 163.23441 C 43.726352 163.29311 43.784744 163.29311 43.843403 163.23441 L 46.251524 160.8268 C 46.310184 160.7651 46.310184 160.70615 46.251524 160.64749 L 43.843403 158.24247 C 43.814073 158.21157 43.784756 158.19596 43.755036 158.19596 z M 130.0955 158.20216 C 130.0669 158.20216 130.0385 158.21678 130.0092 158.24608 L 127.59488 160.66041 C 127.53928 160.71601 127.53928 160.77435 127.59488 160.83301 L 130.0092 163.24423 C 130.0679 163.30293 130.12316 163.30293 130.1818 163.24423 L 132.59302 160.83301 C 132.65162 160.77431 132.65162 160.71597 132.59302 160.66041 L 130.1818 158.24608 C 130.1525 158.21678 130.1241 158.20216 130.0955 158.20216 z M 38.605996 158.20629 C 38.580526 158.20668 38.555249 158.21978 38.530549 158.24608 L 36.116226 160.66661 C 36.066826 160.71601 36.066826 160.76862 36.116226 160.81802 L 38.539334 163.22872 C 38.588734 163.28122 38.638264 163.28122 38.690746 163.22872 L 41.101968 160.80872 C 41.154458 160.75932 41.154458 160.7067 41.101968 160.65731 L 38.681444 158.24298 C 38.656744 158.21828 38.631466 158.20589 38.605996 158.20629 z M 110.14737 158.20733 C 110.11877 158.20733 110.0899 158.22128 110.0621 158.24918 L 107.65708 160.65731 C 107.59848 160.71291 107.59848 160.76866 107.65708 160.82732 L 110.0652 163.23493 C 110.1208 163.29053 110.17656 163.29053 110.23212 163.23493 L 112.64024 160.82732 C 112.69584 160.77172 112.69584 160.71596 112.64024 160.65731 L 110.23212 158.24918 C 110.20432 158.22138 110.17587 158.20733 110.14737 158.20733 z M 41.216173 164.56559 C 36.617243 164.57459 33.257342 166.99708 31.523741 170.04123 C 31.336599 170.40892 31.157536 170.81453 31.012661 171.24064 C 30.827425 171.78091 30.691895 172.20053 30.605451 172.49999 C 30.287462 173.5898 30.284188 174.79402 30.321231 176.01657 C 30.326531 176.18327 30.338147 176.34552 30.355337 176.50388 C 31.007403 179.63821 33.629944 182.15987 38.636485 182.15987 C 38.837344 182.15787 41.398571 182.15677 46.315603 182.15677 L 46.338341 182.15677 L 51.870303 182.09527 L 51.871853 182.09527 C 52.584428 182.02427 53.229196 181.91315 53.809203 181.76506 C 54.889746 181.49029 55.911423 181.00555 56.874649 180.31709 C 57.291429 180.02071 57.732966 179.64387 58.205317 179.19312 C 58.214617 179.18412 58.227084 179.17992 58.242524 179.18692 C 58.250524 179.19292 58.256067 179.19886 58.258027 179.20656 L 58.258544 179.20604 L 58.25906 179.20553 L 58.259577 179.20501 L 58.260094 179.20501 L 58.258544 179.21535 C 58.258454 179.21735 58.258437 179.21955 58.258027 179.22155 L 58.22392 179.4143 L 57.761416 182.08752 C 57.768516 182.13332 57.803436 182.1578 57.865803 182.1578 C 58.040137 182.1578 59.463125 182.15677 62.131175 182.16039 L 62.206623 182.16039 C 67.126494 182.16039 70.507565 180.18117 72.375511 177.55136 C 72.400621 177.51146 72.425225 177.47137 72.449925 177.43096 C 72.987108 176.55727 73.419264 175.52311 73.752688 174.33451 C 73.866918 173.92699 73.950316 173.44536 74.002802 172.89583 C 74.054172 172.35983 74.084909 171.9561 74.094269 171.68506 C 73.876168 168.24553 71.545976 165.17454 67.159809 164.67566 C 66.739854 164.64026 66.319601 164.59493 65.900971 164.59763 L 65.889602 164.59763 C 63.243817 164.61923 60.597901 164.61903 57.955203 164.60383 C 57.925663 164.60383 57.903751 164.61381 57.890091 164.63381 C 57.888986 164.63543 57.887951 164.63726 57.88699 164.63897 C 57.88389 164.64397 57.881339 164.65088 57.879239 164.65758 C 57.879044 164.65857 57.878872 164.65967 57.878722 164.66068 L 57.856501 164.7878 C 57.691157 166.23593 57.311791 167.76799 57.143366 168.90486 C 57.016789 169.7693 56.912012 170.40214 56.828657 170.80966 C 56.753217 171.18227 56.68921 171.50167 56.636937 171.77187 L 56.47364 172.70825 C 56.39955 173.29483 56.285389 173.76708 56.131025 174.12212 C 55.834648 174.79205 55.612071 175.22467 55.463882 175.41299 C 55.099388 175.8854 54.729646 176.2627 54.355423 176.54367 C 53.288355 177.39612 52.11288 177.40409 51.157168 177.40409 L 50.180484 177.39892 C 49.535108 177.39813 48.603917 177.399 47.378587 177.40099 C 47.356197 177.40099 47.339151 177.396 47.328461 177.386 L 47.21374 177.38548 L 49.553132 164.63381 C 49.553841 164.62781 49.553822 164.62269 49.553648 164.61779 C 49.551583 164.59514 49.536083 164.57599 49.514374 164.56921 C 49.510974 164.56842 49.507372 164.56714 49.503522 164.56714 L 49.503006 164.56714 C 49.499006 164.56673 49.494606 164.56663 49.490086 164.56663 L 41.242011 164.56663 C 41.233411 164.56663 41.224813 164.56662 41.216173 164.56663 L 41.216173 164.56559 z M 41.203771 169.31414 C 42.262702 169.32014 43.158257 169.31973 43.896113 169.31673 C 43.930073 169.31673 43.957671 169.33182 43.973111 169.36272 L 43.973111 169.36323 L 43.973627 169.36375 C 43.976327 169.36875 43.980123 169.38022 43.985513 169.39372 C 43.991713 169.41532 43.991714 169.43672 43.988614 169.46142 L 42.617638 177.26921 C 42.602198 177.35561 42.550078 177.39892 42.460541 177.39892 C 40.882949 177.39892 39.768488 177.39954 39.117076 177.39634 C 38.499624 177.39034 37.80795 177.25773 37.051569 176.99223 C 36.674924 176.85947 36.38458 176.70778 36.180821 176.53489 C 35.526321 175.97918 35.264053 175.56575 35.137474 174.67971 C 34.859621 172.76869 35.881547 170.97468 37.542495 170.05777 C 38.619949 169.46501 39.81759 169.30488 41.203771 169.31414 z M 103.22686 169.32086 C 105.52069 169.32986 108.82133 169.32996 113.12806 169.32396 C 114.4031 169.32096 115.98647 169.50284 116.98674 170.35801 C 117.29547 170.62351 117.5274 170.95089 117.67559 171.34606 C 118.00901 172.22593 117.8853 173.02587 117.62908 173.9397 C 117.51485 174.34413 117.3793 174.68034 117.21567 174.94584 C 116.67849 175.8288 115.95601 176.46525 115.04836 176.85425 C 114.04191 177.28646 113.07561 177.40047 111.8191 177.40047 C 107.38888 177.40347 104.05127 177.40347 101.81609 177.40047 C 101.72959 177.39747 101.69578 177.35667 101.71119 177.27335 L 103.09405 169.43248 C 103.10635 169.35838 103.14966 169.32086 103.22686 169.32086 z M 147.26551 169.34773 L 147.265 169.34825 L 147.28205 169.34825 L 147.31047 169.34825 C 148.84225 169.33925 149.93527 169.34245 150.58883 169.35445 C 150.59683 169.35459 150.6046 169.35479 150.6126 169.35497 C 151.81801 169.35897 152.74503 169.63166 153.41604 170.07534 C 153.6571 170.21742 153.86708 170.38212 154.02789 170.57091 C 154.29957 170.88889 154.50336 171.25014 154.63302 171.65457 C 154.64872 171.70267 154.66093 171.75257 154.67333 171.80236 C 154.95166 172.83236 154.70424 174.02465 153.99689 175.04506 C 153.93249 175.15413 153.86628 175.25624 153.79948 175.34995 C 153.55867 175.68646 153.21309 176.02631 152.76544 176.36591 C 152.37644 176.6592 151.94691 176.87812 151.47456 177.02013 C 151.27219 177.08083 151.10591 177.11262 150.92524 177.15862 C 150.84564 177.18072 150.76464 177.2004 150.68288 177.2196 C 150.48543 177.264 150.27539 177.3115 150.07723 177.33794 C 150.07523 177.33818 150.07406 177.33823 150.07206 177.33846 C 149.82203 177.37166 149.56596 177.396 149.27676 177.4015 C 149.21846 177.4025 149.15962 177.40357 149.10054 177.40357 L 149.04112 177.40357 C 148.613 177.40657 147.29337 177.40615 145.08477 177.40615 C 145.07477 177.40615 145.06538 177.40648 145.05738 177.40357 L 144.93491 177.40357 C 144.96531 177.35127 144.99586 177.29791 145.02586 177.24441 L 145.03206 177.20823 C 145.03506 177.18973 145.04456 177.17454 145.05686 177.15914 C 145.07796 177.13154 145.09857 177.10384 145.11887 177.07594 C 145.65931 176.07545 146.12436 174.87968 146.47073 173.45136 L 147.15854 169.57976 C 147.16554 169.53146 147.17276 169.48305 147.18076 169.43506 C 147.18376 169.41866 147.1878 169.40387 147.1942 169.39217 C 147.20741 169.36486 147.23517 169.34754 147.26551 169.34773 z M 61.949791 169.3498 L 61.949791 169.35031 L 61.949791 169.35083 L 64.438528 169.35187 C 64.463278 169.35187 64.487875 169.3522 64.512425 169.35238 C 65.756567 169.34938 66.84517 169.5135 67.853307 170.00092 C 68.103376 170.12132 68.374995 170.34336 68.677546 170.66135 C 69.279567 171.30658 69.418517 172.43387 69.282677 173.27669 C 69.278377 173.30339 69.26777 173.33746 69.26304 173.36506 C 69.23991 173.50782 69.209172 173.65084 69.168472 173.79294 C 69.080812 174.16327 68.966251 174.54478 68.776248 174.86006 C 68.205104 175.80476 67.455034 176.47508 66.53194 176.86407 C 65.611936 177.24998 64.620721 177.41337 63.490782 177.41029 C 63.457242 177.41008 63.423212 177.40997 63.38898 177.40977 L 59.63417 177.40977 C 59.63687 177.40477 59.639738 177.40072 59.642438 177.39582 C 59.635938 177.39082 59.630115 177.38438 59.625385 177.37618 C 59.613035 177.35458 59.613035 177.33319 59.625385 177.31159 C 59.804447 176.9936 59.993167 176.63236 60.196926 176.22793 C 60.332635 175.95343 60.483563 175.57407 60.643928 175.09312 L 60.644444 175.0926 L 60.644444 175.09208 L 60.644444 175.09157 L 60.644444 175.09105 L 60.644444 175.09053 L 61.837653 169.44075 C 61.847153 169.39945 61.868449 169.37273 61.902249 169.36013 C 61.917164 169.35334 61.933401 169.34979 61.949791 169.3498 z M 86.166918 169.3529 L 86.166918 169.35342 C 87.222762 169.35942 88.117787 169.35952 88.855642 169.35652 C 88.889602 169.35352 88.917717 169.36902 88.933157 169.39992 C 88.936257 169.40592 88.939359 169.41553 88.945559 169.43093 C 88.951759 169.45253 88.95176 169.47393 88.94866 169.49863 L 87.586986 177.30022 C 87.571546 177.38662 87.518916 177.42682 87.432473 177.42682 C 85.854881 177.43282 84.740421 177.43241 84.089008 177.42941 C 83.471556 177.42641 82.782982 177.29338 82.026602 177.02788 C 81.649956 176.89821 81.36013 176.74704 81.156371 176.57416 C 80.501871 176.01845 80.239072 175.60504 80.109406 174.72208 C 79.831552 172.81415 80.850379 171.02015 82.511327 170.10014 C 83.582607 169.50739 84.780736 169.34364 86.166918 169.3529 z " /></g></svg>
